<svg width="360" height="211" fill="none" xmlns="http://www.w3.org/2000/svg"><path d="M357.171 0H2.829C1.267 0 0 1.248 0 2.787v205.426C0 209.752 1.267 211 2.829 211h354.342c1.562 0 2.829-1.248 2.829-2.787V2.787C360 1.247 358.733 0 357.171 0z" fill="#939393"/><path d="M360 25H0v45h360V25z" fill="#161615"/><path d="M340 105h-75v35h75v-35z" fill="white" stroke="#A4A4A3" stroke-width=".5" stroke-miterlimit="10"/><path d="M281.266 93.293c-.106.902-.44 1.6-1.002 2.092-.559.488-1.303.732-2.233.732-1.008 0-1.816-.361-2.426-1.084-.605-.722-.908-1.69-.908-2.9v-.82c0-.794.141-1.49.422-2.092.285-.602.688-1.063 1.207-1.383.52-.324 1.121-.486 1.805-.486.906 0 1.633.254 2.18.761.546.504.865 1.203.955 2.098h-1.131c-.098-.68-.311-1.172-.639-1.477-.324-.304-.779-.457-1.365-.457-.719 0-1.283.266-1.693.797-.407.532-.61 1.287-.61 2.268v.826c0 .926.193 1.662.58 2.209.387.547.928.82 1.623.82.625 0 1.104-.14 1.436-.422.336-.285.558-.779.668-1.482h1.131zm4.365 1.213l2.437-7.037h1.231L286.135 96h-.996l-3.159-8.531h1.225l2.426 7.037zm11.01-1.213c-.106.902-.44 1.6-1.002 2.092-.559.488-1.303.732-2.233.732-1.008 0-1.816-.361-2.426-1.084-.605-.722-.908-1.69-.908-2.9v-.82c0-.794.141-1.49.422-2.092.285-.602.688-1.063 1.207-1.383.52-.324 1.121-.486 1.805-.486.906 0 1.633.254 2.18.761.546.504.865 1.203.955 2.098h-1.131c-.098-.68-.311-1.172-.639-1.477-.324-.304-.779-.457-1.365-.457-.719 0-1.283.266-1.694.797-.406.532-.609 1.287-.609 2.268v.826c0 .926.193 1.662.58 2.209.387.547.928.82 1.623.82.625 0 1.104-.14 1.436-.422.336-.285.558-.779.668-1.482h1.131zm1.588 3.44h-.932l3.562-9.264h.926l-3.556 9.263zm11.173-3.44c-.105.902-.439 1.6-1.002 2.092-.558.488-1.302.732-2.232.732-1.008 0-1.816-.361-2.426-1.084-.605-.722-.908-1.69-.908-2.9v-.82c0-.794.141-1.49.422-2.092.285-.602.687-1.063 1.207-1.383.519-.324 1.121-.486 1.805-.486.906 0 1.632.254 2.179.761.547.504.865 1.203.955 2.098h-1.131c-.097-.68-.31-1.172-.638-1.477-.324-.304-.779-.457-1.365-.457-.719 0-1.284.266-1.694.797-.406.532-.609 1.287-.609 2.268v.826c0 .926.193 1.662.58 2.209.387.547.928.82 1.623.82.625 0 1.103-.14 1.436-.422.335-.285.558-.779.667-1.482h1.131zm4.366 1.213l2.437-7.037h1.231L314.271 96h-.996l-3.158-8.531h1.225l2.426 7.037zm7.64 0l2.438-7.037h1.23L321.912 96h-.996l-3.158-8.531h1.224l2.426 7.037zM280.737 148.662h-2.285V155h-.932v-6.338h-2.281v-.771h5.498v.771zm1.817 1.694c.4-.491.921-.737 1.562-.737 1.117 0 1.68.63 1.69 1.89V155h-.904v-3.496c-.003-.381-.091-.663-.263-.845-.17-.182-.435-.273-.796-.273-.293 0-.55.078-.772.234a1.584 1.584 0 00-.517.615V155h-.904v-7.5h.904v2.856zm6.797 4.742c-.717 0-1.299-.235-1.748-.703-.45-.472-.674-1.102-.674-1.89v-.166c0-.524.099-.991.298-1.401.201-.414.481-.736.839-.967a2.11 2.11 0 011.172-.352c.687 0 1.221.226 1.602.679.381.452.571 1.1.571 1.943v.376h-3.579c.013.521.164.943.454 1.265.293.319.664.478 1.113.478.319 0 .59-.065.811-.195.221-.13.415-.303.581-.518l.552.43c-.443.68-1.107 1.021-1.992 1.021zm-.113-4.737c-.364 0-.67.134-.918.401-.247.263-.4.634-.459 1.113h2.647v-.068c-.026-.459-.15-.814-.371-1.065-.222-.254-.521-.381-.899-.381zm6.685 4.639h-.903v-7.5h.903v7.5zm4.712 0c-.052-.104-.095-.29-.127-.557-.42.437-.921.655-1.504.655-.521 0-.949-.147-1.284-.44a1.439 1.439 0 01-.498-1.123c0-.55.208-.976.625-1.279.42-.306 1.009-.459 1.767-.459h.879v-.415c0-.316-.094-.567-.283-.752-.189-.189-.467-.283-.835-.283-.322 0-.592.081-.811.244-.218.163-.327.36-.327.591h-.908c0-.264.093-.518.278-.762.189-.247.443-.443.762-.586a2.585 2.585 0 011.06-.215c.608 0 1.085.153 1.43.459.345.303.524.721.537 1.255v2.432c0 .485.062.87.186 1.157V155h-.947zm-1.499-.688c.283 0 .552-.074.805-.22.254-.147.438-.337.552-.571v-1.084h-.708c-1.107 0-1.66.323-1.66.971 0 .283.094.505.283.664.189.16.432.24.728.24zm6.753-.713a.657.657 0 00-.279-.567c-.182-.136-.503-.254-.962-.351-.455-.098-.818-.215-1.088-.352-.267-.137-.466-.299-.596-.488a1.18 1.18 0 01-.191-.674c0-.433.183-.799.547-1.099.368-.299.837-.449 1.407-.449.599 0 1.084.155 1.455.464.374.309.561.705.561 1.187h-.908c0-.248-.106-.461-.317-.64-.209-.179-.472-.269-.791-.269-.329 0-.586.072-.772.215a.678.678 0 00-.278.562c0 .218.086.382.259.493.172.111.483.216.932.317.453.101.819.222 1.099.362.28.14.486.309.62.507.137.196.205.435.205.718 0 .472-.189.851-.566 1.138-.378.283-.868.425-1.47.425-.423 0-.798-.075-1.123-.225a1.854 1.854 0 01-.767-.625 1.533 1.533 0 01-.273-.874h.903a.946.946 0 00.361.723c.228.175.528.263.899.263.342 0 .615-.068.82-.205.209-.14.313-.325.313-.556zm3.305-5.161v1.279h.987v.698h-.987v3.276c0 .212.044.371.132.479.088.104.238.156.449.156.105 0 .248-.019.43-.058V155a2.627 2.627 0 01-.693.098c-.404 0-.708-.122-.913-.367-.205-.244-.308-.59-.308-1.04v-3.276h-.962v-.698h.962v-1.279h.903zm-32.29 14.568h.679c.426-.007.762-.119 1.006-.337.244-.218.366-.513.366-.884 0-.833-.415-1.25-1.245-1.25-.391 0-.703.112-.938.337-.231.221-.346.516-.346.884h-.904c0-.563.206-1.03.616-1.402.413-.374.937-.561 1.572-.561.671 0 1.196.177 1.577.532.381.355.571.848.571 1.48 0 .309-.101.608-.302.898-.199.29-.471.506-.816.65.391.123.692.328.904.615.214.286.322.636.322 1.05 0 .638-.209 1.144-.625 1.518-.417.374-.959.562-1.626.562-.667 0-1.211-.181-1.631-.542-.417-.362-.625-.839-.625-1.431h.908c0 .374.122.674.366.898.245.225.572.337.982.337.436 0 .77-.114 1.001-.341.231-.228.346-.555.346-.982 0-.413-.126-.731-.38-.952-.254-.221-.62-.335-1.099-.342h-.679v-.737zm6.636 1.304c0-.518.101-.984.303-1.397.205-.413.488-.732.849-.957.365-.225.78-.337 1.246-.337.719 0 1.3.249 1.743.747.446.498.669 1.161.669 1.988v.063c0 .514-.1.977-.298 1.387a2.229 2.229 0 01-.845.952 2.326 2.326 0 01-1.26.342c-.716 0-1.297-.249-1.743-.747-.443-.498-.664-1.158-.664-1.978v-.063zm.908.107c0 .586.135 1.056.406 1.411a1.31 1.31 0 001.093.532 1.3 1.3 0 001.094-.537c.27-.361.405-.866.405-1.513 0-.58-.138-1.049-.415-1.407a1.303 1.303 0 00-1.093-.542 1.3 1.3 0 00-1.08.533c-.273.354-.41.862-.41 1.523zm7.588-1.89a2.8 2.8 0 00-.444-.034c-.593 0-.995.252-1.206.757V167h-.904v-5.283h.879l.015.61c.296-.472.716-.708 1.26-.708.176 0 .309.023.4.069v.839zm7.036 2.085h.987v.738h-.987V167h-.908v-1.65h-3.237v-.533l3.183-4.926h.962v4.721zm-3.12 0h2.212v-3.486l-.107.195-2.105 3.291zm7.276-.298c0-.81.192-1.461.576-1.953.384-.494.887-.742 1.508-.742.619 0 1.109.212 1.47.635V159.5h.904v7.5h-.831l-.043-.566c-.362.442-.865.664-1.509.664-.612 0-1.112-.251-1.499-.752-.384-.502-.576-1.156-.576-1.963v-.069zm.903.103c0 .599.124 1.068.371 1.406.247.339.589.508 1.025.508.573 0 .992-.257 1.255-.771v-2.427c-.27-.498-.685-.747-1.245-.747-.443 0-.788.171-1.035.512-.247.342-.371.848-.371 1.519zm5.942 2.583h-.903v-5.283h.903V167zm-.976-6.685c0-.146.044-.27.132-.371.091-.101.224-.151.4-.151.176 0 .309.05.4.151a.535.535 0 01.137.371.518.518 0 01-.137.367c-.091.097-.224.146-.4.146-.176 0-.309-.049-.4-.146a.528.528 0 01-.132-.367zm2.212 3.999c0-.823.19-1.477.571-1.962.381-.489.885-.733 1.514-.733.644 0 1.147.228 1.508.684l.044-.586h.825v5.156c0 .684-.203 1.222-.61 1.616-.404.394-.947.591-1.631.591-.381 0-.753-.081-1.118-.244-.364-.163-.643-.386-.835-.669l.469-.542c.387.479.861.718 1.421.718.439 0 .781-.124 1.025-.371.248-.248.371-.596.371-1.045v-.454c-.361.416-.854.625-1.479.625-.619 0-1.12-.249-1.504-.747-.381-.498-.571-1.177-.571-2.037zm.908.103c0 .596.122 1.064.366 1.406.244.339.586.508 1.025.508.57 0 .988-.259 1.255-.776v-2.412c-.276-.505-.691-.757-1.245-.757-.439 0-.783.171-1.03.512-.248.342-.371.848-.371 1.519zM318.12 167h-.903v-5.283h.903V167zm-.976-6.685a.55.55 0 01.131-.371c.092-.101.225-.151.401-.151.176 0 .309.05.4.151a.535.535 0 01.137.371.518.518 0 01-.137.367c-.091.097-.224.146-.4.146-.176 0-.309-.049-.401-.146a.532.532 0 01-.131-.367zm3.652.123v1.279h.986v.698h-.986v3.276c0 .212.044.371.132.479.088.104.237.156.449.156.104 0 .247-.019.43-.058V167a2.628 2.628 0 01-.694.098c-.403 0-.708-.122-.913-.367-.205-.244-.307-.59-.307-1.04v-3.276h-.962v-.698h.962v-1.279h.903zm5.122 5.161a.658.658 0 00-.278-.567c-.183-.136-.503-.254-.962-.351-.456-.098-.819-.215-1.089-.352-.267-.137-.466-.299-.596-.488a1.18 1.18 0 01-.19-.674c0-.433.182-.799.547-1.099.367-.299.836-.449 1.406-.449.599 0 1.084.155 1.455.464.374.309.561.705.561 1.187h-.908c0-.248-.106-.461-.317-.64-.208-.179-.472-.269-.791-.269-.329 0-.586.072-.772.215a.678.678 0 00-.278.562c0 .218.086.382.259.493.172.111.483.216.932.317.453.101.819.222 1.099.362.28.14.487.309.62.507.137.196.205.435.205.718 0 .472-.189.851-.566 1.138-.378.283-.868.425-1.47.425-.423 0-.797-.075-1.123-.225a1.85 1.85 0 01-.766-.625 1.527 1.527 0 01-.274-.874h.903a.947.947 0 00.362.723c.228.175.527.263.898.263.342 0 .615-.068.82-.205.209-.14.313-.325.313-.556zm-50.474 10.711c0-.518.101-.984.303-1.397.205-.413.488-.732.85-.957a2.319 2.319 0 011.245-.337c.719 0 1.3.249 1.743.747.446.498.669 1.161.669 1.988v.063c0 .514-.099.977-.298 1.387a2.222 2.222 0 01-.845.952 2.322 2.322 0 01-1.259.342c-.717 0-1.298-.249-1.744-.747-.442-.498-.664-1.158-.664-1.978v-.063zm.909.107c0 .586.135 1.056.405 1.411a1.31 1.31 0 001.094.532c.459 0 .823-.179 1.093-.537.27-.361.406-.866.406-1.513 0-.58-.139-1.049-.415-1.407a1.305 1.305 0 00-1.094-.542c-.446 0-.806.178-1.079.533-.274.354-.41.862-.41 1.523zm5.888-2.7l.03.664c.403-.508.93-.762 1.582-.762 1.116 0 1.679.63 1.689 1.89V179h-.903v-3.496c-.004-.381-.091-.663-.264-.845-.169-.182-.435-.273-.796-.273-.293 0-.55.078-.771.234a1.586 1.586 0 00-.518.615V179h-.903v-5.283h.854zm11.616 2.7c0 .807-.185 1.457-.556 1.948-.371.489-.869.733-1.494.733-.668 0-1.184-.236-1.548-.708l-.044.61h-.83v-7.5h.903v2.798c.365-.453.868-.679 1.509-.679.641 0 1.144.243 1.509.728.368.485.551 1.149.551 1.992v.078zm-.903-.103c0-.615-.119-1.09-.356-1.425-.238-.336-.58-.503-1.026-.503-.595 0-1.023.276-1.284.83v2.285c.277.553.708.83 1.294.83.433 0 .77-.168 1.011-.503.241-.335.361-.84.361-1.514zm5.308 2.686c-.052-.104-.095-.29-.127-.557-.42.437-.921.655-1.504.655-.521 0-.949-.147-1.284-.44a1.439 1.439 0 01-.498-1.123c0-.55.208-.976.625-1.279.42-.306 1.009-.459 1.767-.459h.879v-.415c0-.316-.094-.567-.283-.752-.189-.189-.467-.283-.835-.283-.322 0-.592.081-.811.244-.218.163-.327.36-.327.591h-.908c0-.264.093-.518.278-.762.189-.247.443-.443.762-.586a2.585 2.585 0 011.06-.215c.608 0 1.085.153 1.43.459.345.303.524.721.537 1.255v2.432c0 .485.062.87.186 1.157V179h-.947zm-1.499-.688c.283 0 .551-.074.805-.22.254-.147.438-.337.552-.571v-1.084h-.708c-1.107 0-1.66.323-1.66.971 0 .283.094.505.283.664.189.16.431.24.728.24zm5.796.048c.322 0 .603-.097.844-.293a1.03 1.03 0 00.401-.732h.854c-.016.303-.12.591-.312.864-.192.274-.45.492-.772.655a2.211 2.211 0 01-1.015.244c-.72 0-1.293-.24-1.719-.718-.423-.482-.635-1.139-.635-1.973v-.151c0-.514.094-.972.283-1.372.189-.401.459-.711.811-.933.355-.221.773-.332 1.255-.332.592 0 1.084.178 1.474.532.394.355.604.816.63 1.382h-.854a1.233 1.233 0 00-.391-.84 1.194 1.194 0 00-.859-.332c-.459 0-.816.166-1.07.498-.25.329-.376.806-.376 1.431v.171c0 .609.126 1.077.376 1.406.251.329.609.493 1.075.493zm4.589-1.806l-.566.591V179h-.903v-7.5h.903v4.536l.483-.581 1.646-1.738h1.099l-2.056 2.207 2.295 3.076h-1.06l-1.841-2.446zm-31.704 11.756c0-.518.101-.984.303-1.397.205-.413.488-.732.85-.957a2.319 2.319 0 011.245-.337c.719 0 1.3.249 1.743.747.446.498.669 1.161.669 1.988v.063c0 .514-.099.977-.298 1.387a2.222 2.222 0 01-.845.952 2.322 2.322 0 01-1.259.342c-.717 0-1.298-.249-1.744-.747-.442-.498-.664-1.158-.664-1.978v-.063zm.909.107c0 .586.135 1.056.405 1.411a1.31 1.31 0 001.094.532c.459 0 .823-.179 1.093-.537.27-.361.406-.866.406-1.513 0-.58-.139-1.049-.415-1.407a1.305 1.305 0 00-1.094-.542c-.446 0-.806.178-1.079.533-.274.354-.41.862-.41 1.523zm5.478 2.583v-4.585h-.835v-.698h.835v-.542c0-.567.151-1.004.454-1.314.303-.309.731-.464 1.284-.464.209 0 .415.028.62.083l-.048.733a2.623 2.623 0 00-.489-.044c-.293 0-.519.086-.678.259-.16.169-.24.413-.24.732v.557h1.128v.698h-1.128V191h-.903zm6.738-6.562v1.279h.987v.698h-.987v3.276c0 .212.044.371.132.479.088.104.238.156.449.156.105 0 .248-.019.43-.058V191a2.627 2.627 0 01-.693.098c-.404 0-.708-.122-.913-.367-.205-.244-.308-.59-.308-1.04v-3.276h-.962v-.698h.962v-1.279h.903zm2.95 1.918c.4-.491.921-.737 1.562-.737 1.117 0 1.68.63 1.69 1.89V191h-.904v-3.496c-.003-.381-.091-.663-.263-.845-.17-.182-.435-.273-.796-.273-.293 0-.551.078-.772.234a1.584 1.584 0 00-.517.615V191h-.904v-7.5h.904v2.856zm6.796 4.742c-.716 0-1.298-.235-1.748-.703-.449-.472-.673-1.102-.673-1.89v-.166c0-.524.099-.991.297-1.401.202-.414.482-.736.84-.967a2.11 2.11 0 011.172-.352c.687 0 1.221.226 1.602.679.381.452.571 1.1.571 1.943v.376h-3.579c.013.521.164.943.454 1.265.293.319.664.478 1.113.478.319 0 .589-.065.811-.195.221-.13.415-.303.581-.518l.552.43c-.443.68-1.107 1.021-1.993 1.021zm-.112-4.737c-.364 0-.67.134-.918.401-.247.263-.4.634-.459 1.113h2.647v-.068c-.026-.459-.15-.814-.371-1.065-.222-.254-.521-.381-.899-.381zm7.822 3.999c.323 0 .604-.097.845-.293.241-.195.374-.439.401-.732h.854c-.016.303-.12.591-.313.864a2.052 2.052 0 01-.771.655 2.215 2.215 0 01-1.016.244c-.719 0-1.292-.24-1.718-.718-.424-.482-.635-1.139-.635-1.973v-.151c0-.514.094-.972.283-1.372.189-.401.459-.711.811-.933.354-.221.773-.332 1.255-.332.592 0 1.083.178 1.474.532.394.355.604.816.63 1.382h-.854a1.237 1.237 0 00-.391-.84 1.196 1.196 0 00-.859-.332c-.459 0-.816.166-1.07.498-.25.329-.376.806-.376 1.431v.171c0 .609.126 1.077.376 1.406.251.329.609.493 1.074.493zm6.377.64c-.052-.104-.094-.29-.127-.557-.42.437-.921.655-1.504.655-.52 0-.948-.147-1.284-.44a1.439 1.439 0 01-.498-1.123c0-.55.209-.976.625-1.279.42-.306 1.009-.459 1.768-.459h.879v-.415c0-.316-.095-.567-.283-.752-.189-.189-.468-.283-.835-.283-.323 0-.593.081-.811.244-.218.163-.327.36-.327.591h-.908c0-.264.092-.518.278-.762.189-.247.443-.443.762-.586a2.58 2.58 0 011.059-.215c.609 0 1.086.153 1.431.459.345.303.524.721.537 1.255v2.432c0 .485.062.87.186 1.157V191h-.948zm-1.499-.688c.284 0 .552-.074.806-.22.254-.147.438-.337.552-.571v-1.084h-.708c-1.107 0-1.66.323-1.66.971 0 .283.094.505.283.664.189.16.431.24.727.24zm6.231-3.785a2.804 2.804 0 00-.445-.034c-.592 0-.994.252-1.206.757V191h-.903v-5.283h.879l.015.61c.296-.472.716-.708 1.259-.708.176 0 .31.023.401.069v.839zm.517 1.787c0-.81.192-1.461.577-1.953.384-.494.887-.742 1.508-.742.619 0 1.109.212 1.47.635V183.5h.903v7.5h-.83l-.044-.566c-.361.442-.864.664-1.508.664-.612 0-1.112-.251-1.499-.752-.385-.502-.577-1.156-.577-1.963v-.069zm.904.103c0 .599.123 1.068.371 1.406.247.339.589.508 1.025.508.573 0 .991-.257 1.255-.771v-2.427c-.27-.498-.685-.747-1.245-.747-.443 0-.788.171-1.035.512-.248.342-.371.848-.371 1.519z" fill="#161615"/></svg>