<svg width="360" height="211" fill="none" xmlns="http://www.w3.org/2000/svg"><path d="M357.171 0H2.829C1.267 0 0 1.248 0 2.787v205.426C0 209.752 1.267 211 2.829 211h354.342c1.562 0 2.829-1.248 2.829-2.787V2.787C360 1.247 358.733 0 357.171 0z" fill="#BCBCBC"/><path d="M235 34H20v35h215V34z" fill="white" stroke="#A4A4A3" stroke-width=".5" stroke-miterlimit="10"/><path d="M340 161H20v35h320v-35z" fill="white" stroke="#A4A4A3" stroke-width=".567" stroke-miterlimit="10"/><path fill-rule="evenodd" clip-rule="evenodd" d="M313.61 92.852A15.571 15.571 0 00324.21 97a15.877 15.877 0 0011.173-4.73A16.043 16.043 0 00340 81.002c0-4.22-1.66-8.27-4.617-11.267a15.877 15.877 0 00-11.173-4.73 15.57 15.57 0 00-10.6 4.146 16.018 16.018 0 00-3.855 5.371 16.09 16.09 0 000 12.96 16.018 16.018 0 003.855 5.37zM337.926 89.913a.49.49 0 01.49-.493.496.496 0 01.519.493.5.5 0 01-.519.522.494.494 0 01-.46-.326.506.506 0 01-.03-.196zm.49.413a.419.419 0 00.409-.413.398.398 0 00-.676-.27.39.39 0 00-.115.27.418.418 0 00.382.413zm-.054-.165h-.109v-.468h.19a.163.163 0 01.11.027c.054.027.054.056.054.11 0 .056-.027.112-.082.112l.111.22h-.137l-.056-.193h-.081v-.084h.107c.027 0 .027-.027.027-.054s0-.027-.027-.054h-.11l.003.384z" fill="#E99F2B"/><path fill-rule="evenodd" clip-rule="evenodd" d="M318.719 79.311c-.055-.576-.164-1.125-.274-1.702h-9.67c.115-.566.261-1.125.436-1.675h8.772a18.684 18.684 0 00-.657-1.703h-7.431c.272-.582.573-1.15.902-1.703h5.6a14.017 14.017 0 00-1.201-1.675h-3.199a15.89 15.89 0 011.612-1.704 15.877 15.877 0 00-8.16-3.945 15.84 15.84 0 00-8.98 1.167 15.937 15.937 0 00-6.893 5.902A16.059 16.059 0 00287 81c0 3.098.895 6.13 2.576 8.726a15.937 15.937 0 006.893 5.902 15.842 15.842 0 008.98 1.167 15.878 15.878 0 009.749-5.62h-3.201a19.06 19.06 0 01-1.201-1.702h5.6c.353-.543.663-1.112.929-1.703h-7.431a17.44 17.44 0 01-.684-1.677h8.772c.183-.56.338-1.128.463-1.703.241-1.11.36-2.242.356-3.377 0-.577-.027-1.154-.082-1.703v.002z" fill="#BF0C24"/><path fill-rule="evenodd" clip-rule="evenodd" d="M337.926 84.721a.503.503 0 01.297-.478.496.496 0 01.193-.042.498.498 0 01.484.318.483.483 0 01.035.202.508.508 0 01-.151.37.529.529 0 01-.368.152.515.515 0 01-.49-.522zm.49.384a.381.381 0 00.379-.23.387.387 0 00-.224-.517.381.381 0 00-.155-.021.382.382 0 00-.382.384.384.384 0 00.382.384zm-.054-.164h-.109v-.44h.298c.054.028.054.084.054.138a.156.156 0 01-.082.111l.111.193h-.137l-.056-.165h-.081v-.084h.054c.027 0 .056 0 .056-.027.027 0 .027-.027.027-.055a.027.027 0 00-.027-.027c0-.029-.029 0-.056 0h-.054l.002.356z" fill="white"/><path fill-rule="evenodd" clip-rule="evenodd" d="M308.227 85.625a4.987 4.987 0 01-1.284.22c-.821 0-1.312-.52-1.312-1.456.006-.2.024-.4.054-.599l.11-.63.081-.522.738-4.504h1.639l-.191.988h1.039l-.247 1.647h-1.039l-.436 2.695c-.019.09-.028.181-.027.273 0 .358.164.5.574.5.174-.003.348-.022.519-.057l-.218 1.445zm5.301-.053a6.415 6.415 0 01-1.749.246 2.61 2.61 0 01-2.174-.753 2.638 2.638 0 01-.75-2.184c0-2.28 1.257-3.929 3.005-3.929a2.175 2.175 0 011.692.667 2.206 2.206 0 01.604 1.722 7.687 7.687 0 01-.191 1.62h-3.416a.74.74 0 00-.027.22c0 .769.519 1.153 1.502 1.153a4.083 4.083 0 001.776-.411l-.272 1.648zm-1.012-3.927v-.33a.763.763 0 00-.487-.808.752.752 0 00-.332-.045c-.546 0-.929.411-1.092 1.183h1.911zm-17.402 4.064h-1.696l.985-6.235-2.213 6.235h-1.175l-.137-6.207-1.038 6.207h-1.667l1.338-8.102h2.487l.054 4.999 1.667-5h2.732l-1.337 8.103zm4.125-2.939a1.59 1.59 0 00-.329-.027c-.983 0-1.475.385-1.475.988a.62.62 0 00.629.687c.819.003 1.147-.689 1.175-1.646v-.002zm1.367 2.94h-1.476l.027-.688a1.999 1.999 0 01-1.804.798 1.65 1.65 0 01-1.143-.584 1.673 1.673 0 01-.386-1.23c.003-.288.048-.574.135-.85.274-1.017 1.283-1.647 2.842-1.675.191 0 .49 0 .764.027.041-.143.059-.29.055-.44 0-.44-.355-.578-1.147-.578a4.525 4.525 0 00-1.421.222l-.246.054-.11.027.247-1.483a6.398 6.398 0 011.995-.357c1.473 0 2.267.688 2.267 1.951.017.432-.011.864-.083 1.29l-.382 2.36-.054.414-.027.33-.026.22-.027.191zm21.172-6.538c.538.018 1.064.17 1.531.44l.298-1.758a4.276 4.276 0 00-.437-.164l-.684-.193a4.842 4.842 0 00-2.65.249 5.124 5.124 0 00-1.012.877l-.218-.055-1.747 1.236.081-.687h-1.804l-1.064 6.586h1.72l.628-3.54s.247-.5.355-.66a.998.998 0 01.956-.411h.137c-.057.418-.084.84-.081 1.261 0 2.143 1.201 3.493 3.059 3.493a5.498 5.498 0 001.504-.22l.298-1.867a3.054 3.054 0 01-1.449.44c-1.01 0-1.61-.77-1.61-1.977.003-1.786.904-3.048 2.189-3.048v-.002zm14.509-1.565l-.383 2.306a1.768 1.768 0 00-1.558-.933 2.573 2.573 0 00-2.268 1.51v-.027l-1.092-.658.11-.687h-1.83l-1.039 6.592h1.694l.574-3.542s.438-.5.546-.66a1.066 1.066 0 01.764-.411 6.025 6.025 0 00-.298 1.949c0 1.647.846 2.746 2.103 2.746a1.977 1.977 0 001.588-.741l-.083.66h1.612l1.312-8.103-1.752-.001zm-2.105 6.535c-.574 0-.873-.439-.873-1.29 0-1.291.546-2.224 1.338-2.224.596 0 .902.468.902 1.29-.001 1.32-.547 2.227-1.368 2.227l.001-.003zm-7.895-1.372a1.575 1.575 0 00-.328-.027c-.985 0-1.476.385-1.476.988a.636.636 0 00.16.486.62.62 0 00.468.2c.821.004 1.148-.688 1.176-1.645v-.002zm1.365 2.94h-1.502l.058-.683a2.006 2.006 0 01-1.802.798 1.658 1.658 0 01-1.511-1.147 1.671 1.671 0 01-.078-.666c0-1.565 1.175-2.526 3.032-2.526.247-.004.493.005.738.027.048-.142.076-.29.083-.44 0-.44-.355-.576-1.174-.576-.482-.001-.962.073-1.422.22l-.218.054-.11.027.245-1.483a6.417 6.417 0 011.994-.357c1.476 0 2.24.688 2.24 1.951.032.432.005.866-.081 1.29l-.356 2.363-.053.41-.056.331-.027.22v.192-.006zm-23.468-5.19c.43.002.859.039 1.283.109l.246-1.538c-.491-.054-1.147-.138-1.53-.138-1.912 0-2.542 1.045-2.542 2.251-.006.401.115.793.346 1.12.231.326.56.569.939.694.684.33.794.384.794.687 0 .412-.353.658-1.01.658a4.55 4.55 0 01-1.558-.273l-.192 1.51.027.026.329.055c.144.036.291.064.438.084.409.027.765.054.983.054 1.912 0 2.706-.742 2.706-2.195a1.88 1.88 0 00-1.285-1.839c-.738-.33-.821-.384-.821-.687 0-.304.328-.577.847-.577v-.001z" fill="#082C5C"/><path fill-rule="evenodd" clip-rule="evenodd" d="M324.078 77.334l-.298 1.758a3.26 3.26 0 00-1.529-.44c-1.285 0-2.185 1.262-2.185 3.049 0 1.236.596 1.977 1.613 1.977a3.343 3.343 0 001.446-.41l-.298 1.838c-.487.15-.992.233-1.502.248-1.857 0-3.007-1.347-3.007-3.516 0-2.885 1.589-4.917 3.852-4.917.267-.004.534.024.794.084l.684.165c.221.082.274.109.439.162l-.009.002zm-5.519 1.21h-.163c-.574 0-.902.275-1.422 1.07l.164-1.016h-1.559l-1.064 6.592h1.72c.63-4.037.795-4.724 1.613-4.724h.11c.125-.66.346-1.3.654-1.896l-.053-.027zm-9.891 6.562a3.52 3.52 0 01-1.228.221 1.256 1.256 0 01-1.036-.393 1.265 1.265 0 01-.287-.493 1.264 1.264 0 01-.044-.57c.006-.193.024-.386.055-.577l.11-.66.083-.52.736-4.505h1.696l-.192.988h.873l-.219 1.62h-.874l-.464 2.747c-.021.09-.03.183-.027.275 0 .329.164.466.574.466.157.014.315-.004.464-.055l-.219 1.454-.001.002zm-6.583-4.42c-.005.403.116.797.346 1.128.23.33.558.579.937.712.711.328.821.439.821.712 0 .413-.298.606-.985.606a5.078 5.078 0 01-1.53-.248l-.245 1.51.081.028.298.055c.152.039.308.057.464.054.308.042.618.061.929.056 1.804 0 2.652-.688 2.652-2.195a1.834 1.834 0 00-.295-1.123 1.816 1.816 0 00-.909-.718c-.737-.33-.819-.41-.819-.714 0-.357.298-.522.848-.522.411.003.821.031 1.228.084l.248-1.51c-.498-.085-1-.131-1.505-.138-1.916 0-2.597 1.014-2.568 2.224l.004-.001zm35.08 4.503h-1.612l.081-.632a2.033 2.033 0 01-1.583.714c-1.257 0-2.078-1.07-2.078-2.717 0-2.196 1.284-4.065 2.787-4.065a1.956 1.956 0 011.641.906l.382-2.308h1.691l-1.312 8.102h.003zm-2.515-1.537c.795 0 1.339-.935 1.339-2.225 0-.852-.298-1.297-.902-1.297-.764 0-1.338.906-1.338 2.195-.003.884.297 1.327.898 1.328l.003-.002zm-20.736 1.397a5.594 5.594 0 01-1.776.275c-1.914 0-2.897-1.017-2.897-2.966 0-2.253 1.257-3.929 2.978-3.929a2.189 2.189 0 011.706.66 2.22 2.22 0 01.618 1.73 6.737 6.737 0 01-.219 1.647h-3.389a.525.525 0 00-.027.193c0 .77.519 1.154 1.502 1.154a3.733 3.733 0 001.776-.413l-.272 1.649zm-.958-3.927v-.328a.761.761 0 00-.487-.806.748.748 0 00-.332-.044c-.546 0-.929.411-1.092 1.18l1.911-.002zm-17.405 4.063h-1.694l.983-6.235-2.213 6.235h-1.175l-.137-6.178-1.037 6.178h-1.589l1.339-8.102h2.46l.081 5.026 1.639-5.026h2.681l-1.338 8.102zm4.235-2.939c-.164 0-.245-.027-.382-.027-.956 0-1.449.358-1.449 1.015a.578.578 0 00.596.66c.716.005 1.204-.656 1.235-1.644v-.004zm1.26 2.94h-1.422l.027-.688a2.117 2.117 0 01-1.804.798 1.586 1.586 0 01-1.497-1.124 1.609 1.609 0 01-.06-.661c0-1.62 1.092-2.555 3.005-2.555.192 0 .439.027.711.055.038-.134.056-.272.054-.411 0-.44-.298-.599-1.092-.599a5.565 5.565 0 00-1.42.165l-.247.082-.164.028.247-1.483a6.796 6.796 0 012.049-.33c1.476 0 2.268.658 2.268 1.922-.01.443-.056.883-.137 1.319l-.382 2.335-.055.41-.027.331-.027.247-.026.164-.001-.006zm25.791-2.94c-.191 0-.274-.027-.382-.027-.985 0-1.477.358-1.477 1.015a.602.602 0 00.376.62.59.59 0 00.253.04c.684 0 1.201-.66 1.23-1.648zm1.257 2.94h-1.422l.027-.688a2.126 2.126 0 01-1.804.798 1.581 1.581 0 01-1.174-.544 1.61 1.61 0 01-.382-1.241c0-1.62 1.092-2.555 3.005-2.555.191 0 .437.027.684.055.043-.133.071-.271.081-.411 0-.44-.298-.599-1.092-.599a5.782 5.782 0 00-1.446.165l-.221.082-.163.028.247-1.483a6.786 6.786 0 012.049-.33c1.475 0 2.24.658 2.24 1.922a5.9 5.9 0 01-.137 1.319l-.356 2.335-.053.41-.055.331-.027.247v.164l-.001-.006zm4.589-6.647h-.166c-.572 0-.899.275-1.42 1.072l.164-1.017h-1.559l-1.038 6.592h1.696c.627-4.037.794-4.724 1.612-4.724h.108c.126-.66.347-1.3.656-1.896l-.053-.027z" fill="white"/><path d="M295.447 42.242l-1.51-6.852a1.709 1.709 0 00-.726-.976 1.882 1.882 0 00-1.224-.287h-6.926l-.061.313c5.395 1.236 8.963 4.22 10.447 7.802z" fill="#F68A0A"/><path d="M311.498 34.265h-4.475l-2.795 15.507h4.468l2.802-15.507zM298.175 49.758l7.039-15.482h-4.737l-4.378 10.576-.468-1.596c-1.421-2.627-3.559-4.846-6.192-6.429l4.002 12.934 4.734-.003zM324.263 44.702c.016-1.761-1.182-3.104-3.757-4.213-1.566-.715-2.52-1.194-2.509-1.92 0-.643.809-1.333 2.563-1.333a8.653 8.653 0 013.344.594l.405.176.608-3.36a12.21 12.21 0 00-4.01-.646c-4.418 0-7.528 2.1-7.557 5.116-.027 2.23 2.223 3.47 3.92 4.213 1.74.757 2.323 1.243 2.312 1.921-.012 1.04-1.386 1.513-2.672 1.513a9.847 9.847 0 01-4.213-.814l-.571-.248-.629 3.476c1.594.556 3.281.834 4.98.823 4.696-.001 7.751-2.076 7.786-5.298zM329.58 47.448l5.726.006c.136.54.544 2.323.544 2.323H340l-3.621-15.495h-3.449a2.336 2.336 0 00-1.402.266c-.423.232-.754.59-.941 1.017l-6.64 14.212h4.699s.759-1.91.934-2.329zm3.065-7.51c-.023.042.369-.897.591-1.48l.303 1.336 1.032 4.478h-3.704c.369-.89 1.774-4.333 1.774-4.333l.004-.001z" fill="#004A89"/><path d="M27.266 23.293c-.106.902-.44 1.6-1.002 2.092-.559.488-1.303.732-2.233.732-1.008 0-1.816-.361-2.425-1.084-.606-.723-.909-1.69-.909-2.9v-.82c0-.793.14-1.49.422-2.092.285-.602.688-1.063 1.207-1.383.52-.324 1.121-.486 1.805-.486.906 0 1.633.253 2.18.761.546.504.865 1.203.955 2.098h-1.131c-.098-.68-.31-1.172-.639-1.477-.324-.304-.78-.457-1.365-.457-.719 0-1.283.266-1.694.797-.406.531-.609 1.287-.609 2.268v.826c0 .926.194 1.662.58 2.209.387.547.928.82 1.623.82.625 0 1.104-.14 1.436-.422.336-.285.558-.779.668-1.482h1.13zM32.55 26c-.063-.125-.114-.348-.153-.668-.504.523-1.105.785-1.804.785-.625 0-1.139-.176-1.541-.527a1.728 1.728 0 01-.598-1.348c0-.66.25-1.172.75-1.535.504-.367 1.211-.55 2.121-.55h1.055v-.499c0-.379-.113-.68-.34-.902-.226-.227-.56-.34-1.002-.34-.387 0-.71.098-.973.293-.261.195-.392.432-.392.709h-1.09c0-.316.111-.621.334-.914.227-.297.531-.531.914-.703.387-.172.81-.258 1.271-.258.731 0 1.303.184 1.717.55.414.364.63.866.645 1.507v2.918c0 .582.074 1.044.222 1.388V26h-1.136zm-1.799-.826c.34 0 .662-.088.967-.264.304-.176.525-.404.662-.685v-1.301h-.85c-1.328 0-1.992.389-1.992 1.166 0 .34.113.605.34.797.226.191.517.287.873.287zm7.476-4.541a3.253 3.253 0 00-.533-.041c-.71 0-1.193.303-1.447.908V26h-1.084v-6.34h1.055l.017.733c.356-.567.86-.85 1.512-.85.211 0 .371.027.48.082v1.008zm.622 2.144c0-.972.23-1.754.691-2.343.461-.594 1.065-.891 1.81-.891.743 0 1.33.254 1.764.762V17H44.2v9h-.996l-.053-.68c-.433.532-1.037.797-1.81.797-.735 0-1.334-.3-1.799-.902-.46-.602-.691-1.387-.691-2.356v-.082zm1.084.123c0 .72.148 1.282.445 1.688.297.406.707.61 1.23.61.688 0 1.19-.31 1.506-.927V21.36c-.324-.597-.822-.896-1.494-.896-.531 0-.945.205-1.242.615-.297.41-.445 1.018-.445 1.822zm9.955-3.24l.035.797c.484-.61 1.117-.914 1.898-.914 1.34 0 2.016.756 2.028 2.268V26h-1.084v-4.195c-.004-.457-.11-.795-.317-1.014-.203-.219-.521-.328-.955-.328-.351 0-.66.094-.926.281a1.909 1.909 0 00-.62.738V26h-1.085v-6.34h1.026zm9.51 5.713c-.422.496-1.042.744-1.858.744-.676 0-1.191-.195-1.547-.586-.351-.394-.53-.976-.533-1.746V19.66h1.084v4.096c0 .96.39 1.441 1.172 1.441.828 0 1.379-.308 1.652-.925V19.66h1.084V26h-1.031l-.024-.627zm3.726-5.713l.03.703c.464-.547 1.091-.82 1.88-.82.887 0 1.49.34 1.81 1.02.212-.305.485-.551.821-.739.34-.187.74-.281 1.201-.281 1.39 0 2.098.736 2.121 2.209V26h-1.084v-4.184c0-.453-.103-.79-.31-1.013-.207-.227-.555-.34-1.043-.34-.403 0-.737.121-1.002.363-.266.238-.42.56-.463.967V26h-1.09v-4.154c0-.922-.451-1.383-1.353-1.383-.711 0-1.198.303-1.46.908V26H62.1v-6.34h1.025zm14.871 3.24c0 .97-.223 1.748-.668 2.338-.445.586-1.043.88-1.793.88-.8 0-1.42-.284-1.857-.85l-.053.732h-.996v-9h1.084v3.357c.437-.543 1.04-.814 1.81-.814s1.374.291 1.811.873c.441.582.662 1.379.662 2.39v.094zm-1.084-.123c0-.738-.143-1.308-.428-1.71-.285-.403-.695-.604-1.23-.604-.715 0-1.229.332-1.541.996v2.742c.332.664.85.996 1.553.996.52 0 .923-.2 1.212-.603.29-.403.434-1.008.434-1.817zm5.086 3.34c-.86 0-1.559-.281-2.098-.844-.539-.566-.808-1.322-.808-2.267v-.2c0-.628.119-1.189.357-1.681a2.815 2.815 0 011.008-1.16 2.536 2.536 0 011.406-.422c.825 0 1.465.271 1.922.814.457.543.686 1.32.686 2.332v.452h-4.295c.015.625.197 1.13.545 1.517.351.383.797.574 1.336.574.382 0 .707-.078.972-.234.266-.156.498-.363.698-.621l.662.516c-.532.816-1.328 1.224-2.391 1.224zm-.135-5.683c-.437 0-.804.16-1.101.48-.297.316-.48.762-.551 1.336h3.176v-.082c-.031-.55-.18-.977-.446-1.277-.265-.305-.625-.457-1.078-.457zm6.932.199a3.253 3.253 0 00-.533-.041c-.711 0-1.194.303-1.448.908V26h-1.083v-6.34h1.054l.018.733c.355-.567.86-.85 1.511-.85.211 0 .372.027.48.082v1.008zM25.813 86.057h-3.698v3.023h4.295V90h-5.42v-8.531h5.362v.925h-4.237v2.743h3.698v.92zm3.955-.082l1.406-2.315h1.266l-2.075 3.135L32.504 90H31.25l-1.465-2.373L28.32 90h-1.26l2.14-3.205-2.075-3.135h1.254l1.389 2.315zm9.181.925c0 .965-.22 1.743-.662 2.332-.441.59-1.039.885-1.793.885-.77 0-1.375-.244-1.816-.732v3.052h-1.084V83.66h.99l.053.703c.441-.547 1.054-.82 1.84-.82.761 0 1.363.287 1.804.861.446.575.668 1.373.668 2.397v.1zm-1.084-.123c0-.715-.152-1.279-.457-1.693-.305-.414-.723-.621-1.254-.621-.656 0-1.148.29-1.476.873v3.03c.324.577.82.866 1.488.866.52 0 .932-.205 1.236-.615.309-.414.463-1.027.463-1.84zM41.51 90h-1.084v-6.34h1.084V90zm-1.172-8.022c0-.175.053-.324.158-.445.11-.12.27-.181.48-.181.212 0 .372.06.481.181a.64.64 0 01.164.445.62.62 0 01-.164.44c-.11.117-.27.176-.48.176-.211 0-.371-.059-.48-.176a.632.632 0 01-.16-.44zm5.977 2.655a3.254 3.254 0 00-.534-.041c-.71 0-1.193.302-1.447.908V90H43.25v-6.34h1.055l.017.733c.356-.567.86-.85 1.512-.85.21 0 .371.027.48.082v1.008zM50.995 90c-.062-.125-.113-.348-.152-.668-.504.524-1.106.785-1.805.785-.625 0-1.139-.176-1.541-.527a1.728 1.728 0 01-.598-1.348c0-.66.25-1.172.75-1.535.504-.367 1.211-.55 2.122-.55h1.054v-.499c0-.379-.113-.68-.34-.902-.226-.227-.56-.34-1.002-.34-.386 0-.71.098-.972.293-.262.195-.393.432-.393.709h-1.09c0-.316.112-.621.334-.914.227-.297.532-.531.914-.703.387-.172.81-.258 1.272-.258.73 0 1.303.184 1.717.55.414.364.629.866.644 1.507v2.918c0 .582.074 1.044.223 1.388V90h-1.137zm-1.799-.826c.34 0 .662-.088.967-.264.305-.176.526-.404.662-.685v-1.301h-.85c-1.328 0-1.992.388-1.992 1.166 0 .34.114.605.34.797.227.191.518.287.873.287zm5.883-7.049v1.535h1.184v.838H55.08v3.932c0 .254.053.445.158.574.106.125.285.187.54.187.124 0 .296-.023.515-.07V90a3.144 3.144 0 01-.832.117c-.484 0-.85-.146-1.096-.44-.246-.292-.369-.708-.369-1.247v-3.932h-1.154v-.838h1.154v-1.535h1.084zM58.713 90h-1.084v-6.34h1.084V90zm-1.172-8.022c0-.175.053-.324.158-.445.11-.12.27-.181.48-.181.212 0 .372.06.481.181a.64.64 0 01.164.445.62.62 0 01-.164.44c-.11.117-.27.176-.48.176-.211 0-.371-.059-.48-.176a.633.633 0 01-.159-.44zm2.625 4.794c0-.622.121-1.18.363-1.676a2.758 2.758 0 011.02-1.149 2.79 2.79 0 011.494-.404c.863 0 1.56.299 2.092.896.535.598.802 1.393.802 2.385v.076c0 .618-.119 1.172-.357 1.664a2.67 2.67 0 01-1.014 1.143c-.437.274-.941.41-1.511.41-.86 0-1.557-.299-2.092-.896-.531-.598-.797-1.389-.797-2.373v-.076zm1.09.128c0 .703.162 1.268.486 1.694.328.425.766.638 1.313.638.55 0 .988-.214 1.312-.644.324-.434.486-1.04.486-1.816 0-.696-.165-1.258-.497-1.688a1.564 1.564 0 00-1.313-.65c-.535 0-.967.213-1.295.638-.328.426-.492 1.035-.492 1.828zm7.066-3.24l.035.797c.485-.61 1.118-.914 1.899-.914 1.34 0 2.016.756 2.027 2.267V90H71.2v-4.195c-.004-.457-.11-.795-.316-1.014-.203-.219-.522-.328-.955-.328-.352 0-.66.094-.926.281a1.909 1.909 0 00-.621.738V90h-1.084v-6.34h1.025zm8.309 3.117c0-.972.23-1.754.691-2.343.461-.594 1.065-.891 1.81-.891.743 0 1.33.254 1.764.762V81h1.085v9h-.997l-.052-.68c-.434.532-1.038.797-1.81.797-.735 0-1.335-.3-1.8-.902-.46-.602-.691-1.387-.691-2.356v-.082zm1.084.123c0 .72.148 1.282.445 1.688.297.406.707.61 1.23.61.688 0 1.19-.31 1.507-.926v-2.913c-.325-.597-.823-.896-1.495-.896-.53 0-.945.205-1.242.615-.297.41-.445 1.018-.445 1.822zm9.867 3.1c-.063-.125-.113-.348-.152-.668-.504.524-1.106.785-1.805.785-.625 0-1.139-.176-1.541-.527a1.728 1.728 0 01-.598-1.348c0-.66.25-1.172.75-1.535.504-.367 1.211-.55 2.121-.55h1.055v-.499c0-.379-.113-.68-.34-.902-.226-.227-.56-.34-1.002-.34-.386 0-.71.098-.972.293-.262.195-.393.432-.393.709h-1.09c0-.316.112-.621.334-.914.227-.297.532-.531.914-.703.387-.172.81-.258 1.272-.258.73 0 1.302.184 1.717.55.414.364.629.866.644 1.507v2.918c0 .582.074 1.044.223 1.388V90h-1.137zm-1.799-.826c.34 0 .662-.088.967-.264.305-.176.525-.404.662-.685v-1.301h-.85c-1.328 0-1.992.388-1.992 1.166 0 .34.114.605.34.797.227.191.518.287.873.287zm5.883-7.049v1.535h1.184v.838h-1.184v3.932c0 .254.053.445.158.574.106.125.285.187.54.187.124 0 .296-.023.515-.07V90a3.143 3.143 0 01-.832.117c-.484 0-.85-.146-1.096-.44-.246-.292-.369-.708-.369-1.247v-3.932h-1.154v-.838h1.154v-1.535h1.084zm5.086 7.992c-.86 0-1.559-.281-2.098-.844-.539-.566-.808-1.322-.808-2.267v-.2c0-.628.119-1.189.357-1.681a2.815 2.815 0 011.008-1.16 2.536 2.536 0 011.406-.422c.824 0 1.465.271 1.922.814.457.543.686 1.32.686 2.332v.452H94.93c.015.625.197 1.13.545 1.517.351.383.797.574 1.336.574.382 0 .707-.078.972-.234.266-.156.498-.363.698-.621l.662.516c-.532.816-1.329 1.224-2.391 1.224zm-.135-5.683c-.437 0-.805.16-1.101.48-.297.317-.48.762-.551 1.336h3.176v-.082c-.032-.55-.18-.977-.446-1.277-.265-.305-.625-.457-1.078-.457zM27.266 151.293c-.106.902-.44 1.6-1.002 2.092-.559.488-1.303.732-2.233.732-1.008 0-1.816-.361-2.425-1.084-.606-.722-.909-1.689-.909-2.9v-.821c0-.792.14-1.49.422-2.091.285-.602.688-1.063 1.207-1.383.52-.324 1.121-.486 1.805-.486.906 0 1.633.253 2.18.761.546.504.865 1.203.955 2.098h-1.131c-.098-.68-.31-1.172-.639-1.477-.324-.304-.78-.457-1.365-.457-.719 0-1.283.266-1.694.797-.406.531-.609 1.287-.609 2.268v.826c0 .926.194 1.662.58 2.209.387.547.928.82 1.623.82.625 0 1.104-.14 1.436-.422.336-.285.558-.779.668-1.482h1.13zM32.55 154c-.063-.125-.114-.348-.153-.668-.504.523-1.105.785-1.804.785-.625 0-1.139-.176-1.541-.527a1.73 1.73 0 01-.598-1.348c0-.66.25-1.172.75-1.535.504-.367 1.211-.551 2.121-.551h1.055v-.498c0-.379-.113-.679-.34-.902-.226-.227-.56-.34-1.002-.34-.387 0-.71.098-.973.293-.261.195-.392.432-.392.709h-1.09c0-.316.111-.621.334-.914.227-.297.531-.531.914-.703.387-.172.81-.258 1.271-.258.731 0 1.303.184 1.717.551.414.363.63.865.645 1.506v2.918c0 .582.074 1.044.222 1.388V154h-1.136zm-1.799-.826c.34 0 .662-.088.967-.264.304-.176.525-.404.662-.685v-1.301h-.85c-1.328 0-1.992.388-1.992 1.166 0 .34.113.605.34.797.226.191.517.287.873.287zm7.476-4.541a3.177 3.177 0 00-.533-.041c-.71 0-1.193.303-1.447.908v4.5h-1.084v-6.34h1.055l.017.733c.356-.567.86-.85 1.512-.85.211 0 .371.027.48.082v1.008zm.622 2.144c0-.972.23-1.754.691-2.343.461-.594 1.065-.891 1.81-.891.743 0 1.33.254 1.764.762V145H44.2v9h-.996l-.053-.68c-.433.532-1.037.797-1.81.797-.735 0-1.334-.301-1.799-.902-.46-.602-.691-1.387-.691-2.356v-.082zm1.084.123c0 .719.148 1.282.445 1.688.297.406.707.609 1.23.609.688 0 1.19-.308 1.506-.926v-2.912c-.324-.597-.822-.896-1.494-.896-.531 0-.945.205-1.242.615-.297.41-.445 1.018-.445 1.822zm7.037-2.472c.48-.59 1.105-.885 1.875-.885 1.34 0 2.015.756 2.027 2.268V154h-1.084v-4.195c-.004-.457-.11-.795-.316-1.014-.203-.219-.522-.328-.955-.328-.352 0-.66.094-.926.281a1.918 1.918 0 00-.621.738V154h-1.084v-9h1.084v3.428zm5.238 2.343c0-.621.121-1.179.363-1.675a2.763 2.763 0 011.02-1.149 2.795 2.795 0 011.494-.404c.863 0 1.56.299 2.092.896.535.598.803 1.393.803 2.385v.076c0 .618-.12 1.172-.358 1.664-.234.489-.572.87-1.014 1.143-.437.273-.941.41-1.511.41-.86 0-1.557-.299-2.092-.896-.531-.598-.797-1.389-.797-2.373v-.077zm1.09.129c0 .704.162 1.268.486 1.694.328.426.766.638 1.313.638.55 0 .988-.214 1.312-.644.324-.434.487-1.039.487-1.817 0-.695-.166-1.257-.499-1.687a1.562 1.562 0 00-1.312-.65c-.535 0-.967.212-1.295.638-.328.426-.492 1.035-.492 1.828zm7.219 3.1h-1.084v-9h1.084v9zm1.476-3.223c0-.972.23-1.754.691-2.343.462-.594 1.065-.891 1.811-.891.742 0 1.33.254 1.764.762V145h1.084v9h-.996l-.053-.68c-.434.532-1.037.797-1.81.797-.735 0-1.335-.301-1.8-.902-.46-.602-.69-1.387-.69-2.356v-.082zm1.084.123c0 .719.149 1.282.445 1.688.297.406.708.609 1.23.609.688 0 1.19-.308 1.507-.926v-2.912c-.325-.597-.823-.896-1.494-.896-.532 0-.946.205-1.243.615-.296.41-.445 1.018-.445 1.822zm8.584 3.217c-.86 0-1.559-.281-2.098-.844-.539-.566-.808-1.322-.808-2.267v-.199c0-.629.119-1.19.357-1.682a2.812 2.812 0 011.008-1.16 2.537 2.537 0 011.406-.422c.825 0 1.465.271 1.922.814.457.543.686 1.321.686 2.332v.452H69.84c.016.625.197 1.13.545 1.517.351.383.797.574 1.336.574.382 0 .707-.078.972-.234.266-.156.498-.363.698-.621l.662.516c-.531.816-1.328 1.224-2.39 1.224zm-.135-5.683c-.437 0-.804.16-1.101.48-.297.316-.48.762-.551 1.336h3.176v-.082c-.032-.551-.18-.977-.445-1.277-.266-.305-.625-.457-1.079-.457zm6.932.199a3.178 3.178 0 00-.533-.041c-.711 0-1.194.303-1.448.908v4.5h-1.084v-6.34h1.055l.018.733c.355-.567.86-.85 1.511-.85.212 0 .372.027.481.082v1.008zm5.004-.973l.035.797c.484-.609 1.117-.914 1.898-.914 1.34 0 2.016.756 2.028 2.268V154H86.34v-4.195c-.004-.457-.11-.795-.317-1.014-.203-.219-.521-.328-.955-.328-.351 0-.66.094-.925.281a1.918 1.918 0 00-.621.738V154h-1.085v-6.34h1.026zm9.51 6.34c-.063-.125-.114-.348-.153-.668-.504.523-1.105.785-1.804.785-.625 0-1.139-.176-1.541-.527a1.73 1.73 0 01-.598-1.348c0-.66.25-1.172.75-1.535.504-.367 1.21-.551 2.121-.551h1.055v-.498c0-.379-.114-.679-.34-.902-.227-.227-.56-.34-1.002-.34-.387 0-.711.098-.973.293-.261.195-.392.432-.392.709h-1.09c0-.316.111-.621.334-.914.226-.297.531-.531.914-.703.387-.172.81-.258 1.271-.258.73 0 1.303.184 1.717.551.414.363.63.865.645 1.506v2.918c0 .582.074 1.044.222 1.388V154h-1.136zm-1.8-.826c.34 0 .663-.088.968-.264.304-.176.525-.404.662-.685v-1.301h-.85c-1.328 0-1.992.388-1.992 1.166 0 .34.113.605.34.797.226.191.517.287.873.287zm5.433-5.514l.029.703c.465-.547 1.092-.82 1.88-.82.887 0 1.491.34 1.811 1.019a2.43 2.43 0 01.82-.738c.34-.187.741-.281 1.202-.281 1.39 0 2.097.736 2.121 2.209V154h-1.084v-4.184c0-.453-.104-.791-.311-1.013-.207-.227-.554-.34-1.043-.34-.402 0-.736.121-1.002.363-.265.238-.42.561-.463.967V154h-1.09v-4.154c0-.922-.45-1.383-1.353-1.383-.71 0-1.197.303-1.459.908V154H95.58v-6.34h1.026zm12.134 6.457c-.859 0-1.558-.281-2.097-.844-.539-.566-.809-1.322-.809-2.267v-.199c0-.629.119-1.19.357-1.682a2.824 2.824 0 011.008-1.16 2.54 2.54 0 011.406-.422c.825 0 1.465.271 1.922.814.457.543.686 1.321.686 2.332v.452h-4.295c.016.625.197 1.13.545 1.517.351.383.797.574 1.336.574.383 0 .707-.078.972-.234.266-.156.499-.363.698-.621l.662.516c-.531.816-1.328 1.224-2.391 1.224zm-.135-5.683c-.437 0-.804.16-1.101.48-.297.316-.481.762-.551 1.336h3.176v-.082c-.031-.551-.18-.977-.445-1.277-.266-.305-.625-.457-1.079-.457z" fill="#161615"/><path d="M120 98H20v35h100V98zM235 98H135v35h100V98z" fill="white" stroke="#A4A4A3" stroke-width=".5" stroke-miterlimit="10"/></svg>