<?xml version="1.0" encoding="utf-8"?><svg xmlns="http://www.w3.org/2000/svg" xmlns:xlink="http://www.w3.org/1999/xlink"><symbol viewBox="0 0 15 15" id="ballot" xmlns="http://www.w3.org/2000/svg"><path fill-rule="evenodd" clip-rule="evenodd" d="M8.333 5.417H12.5V3.75H8.333v1.667zm0 5.833H12.5V9.583H8.333v1.667zm5 3.75H1.667C.75 15 0 14.25 0 13.333V1.667C0 .75.75 0 1.667 0h11.666C14.25 0 15 .75 15 1.667v11.666C15 14.25 14.25 15 13.333 15zM2.5 6.667h4.167V2.5H2.5v4.167zm.833-3.334h2.5v2.5h-2.5v-2.5zM2.5 12.5h4.167V8.333H2.5V12.5zm.833-3.333h2.5v2.5h-2.5v-2.5z"/></symbol><symbol viewBox="0 0 15 15" id="check" xmlns="http://www.w3.org/2000/svg"><g clip-path="url(#bclip0)"><path d="M10.943 4.185L6 9.127 3.308 6.442 2.25 7.5 6 11.25l6-6-1.057-1.065zM7.5 0C3.36 0 0 3.36 0 7.5 0 11.64 3.36 15 7.5 15c4.14 0 7.5-3.36 7.5-7.5C15 3.36 11.64 0 7.5 0zm0 13.5c-3.315 0-6-2.685-6-6s2.685-6 6-6 6 2.685 6 6-2.685 6-6 6z"/></g><defs><clipPath id="bclip0"><path d="M0 0h15v14.955H0z"/></clipPath></defs></symbol><symbol viewBox="0 0 27 27" id="close" xmlns="http://www.w3.org/2000/svg"><path fill-rule="evenodd" clip-rule="evenodd" d="M25.646 26.354l-25-25 .708-.708 25 25-.707.708z"/><path fill-rule="evenodd" clip-rule="evenodd" d="M.646 25.646l25-25 .708.708-25 25-.708-.707z"/></symbol><symbol viewBox="0 0 15 15" id="date" xmlns="http://www.w3.org/2000/svg"><path d="M13.585 1.217h-1.487V.499a.495.495 0 00-.148-.353.509.509 0 00-.714 0 .495.495 0 00-.149.353v.714H3.912V.499a.495.495 0 00-.148-.353.509.509 0 00-.714 0A.495.495 0 002.9.5v.714H1.415c-.374 0-.734.146-.999.407s-.415.615-.416.984v1.252h14.996V2.604a1.387 1.387 0 00-.416-.98 1.425 1.425 0 00-.995-.407zM0 13.609c.001.37.151.723.416.984.265.26.625.407.999.407h12.17c.374 0 .734-.146.999-.407.265-.26.415-.615.416-.984V4.93H0v8.678zm7.075-1.74c.045-.47.185-.926.412-1.341a3.53 3.53 0 01.909-1.076c.7-.724.882-.948.882-1.513 0-.429-.112-.764-.606-.764s-.645.357-.668.928H7.11a1.44 1.44 0 01.41-1.174 1.479 1.479 0 011.177-.436 1.366 1.366 0 011.129.365 1.329 1.329 0 01.398 1.105c0 .67-.202 1.024-.965 1.762A4.33 4.33 0 008.14 11.19h2.241l-.125.729H7.075v-.05zM4.677 6.966c.37-.05.72-.2 1.01-.432h.616v5.386H5.38V7.532c-.232.053-.47.082-.707.086l.003-.65z"/></symbol><symbol viewBox="0 0 15 11" id="email" xmlns="http://www.w3.org/2000/svg"><path d="M14.443 0H.555a.494.494 0 00-.213.048.555.555 0 00-.18.138.646.646 0 00-.12.206A.713.713 0 000 .634v9.732c0 .083.014.166.042.243a.646.646 0 00.12.206.555.555 0 00.18.137c.068.032.14.048.213.048h13.888a.496.496 0 00.213-.048.557.557 0 00.18-.137.646.646 0 00.121-.206.716.716 0 00.043-.243V.634a.716.716 0 00-.043-.243.647.647 0 00-.12-.206.556.556 0 00-.181-.137.496.496 0 00-.213-.048zm-.774 2.886l-5.83 3.853h-.46L1.552 2.887a.608.608 0 01-.169-.17.75.75 0 01-.04-.73.64.64 0 01.149-.193.55.55 0 01.202-.112.506.506 0 01.437.067L7.608 5.37l5.478-3.621a.506.506 0 01.437-.067.55.55 0 01.201.112.64.64 0 01.149.193.721.721 0 01.059.5.703.703 0 01-.099.23.609.609 0 01-.168.17l.004-.001z"/></symbol><symbol viewBox="0 0 35 35" id="full-off" xmlns="http://www.w3.org/2000/svg"><path d="M27.003 26.994h7.996V23H23v12h4.004v-8.006zM7.996 35H12V23H0v3.994h7.997V35zM12 0H7.997v7.997H0V12h12V0zm23 12V7.997h-7.997V0H23v12h12z"/></symbol><symbol viewBox="0 0 35 35" id="full-on" xmlns="http://www.w3.org/2000/svg"><path d="M30.997 31.006H23V35h12V23h-4.003v8.006zM4.003 23H0v12h12v-3.994H4.003V23zM0 12h4.003V4.003H12V0H0v12zM23 0v4.003h7.997V12H35V0H23z"/></symbol><symbol viewBox="0 0 25 25" id="menu-btn-close" xmlns="http://www.w3.org/2000/svg"><path d="M1.47 0l23.51 23.53L23.51 25 0 1.47z"/><path d="M0 23.51L23.53 0 25 1.47 1.47 24.979z"/></symbol><symbol viewBox="0 0 32 18" id="menu-btn-open" xmlns="http://www.w3.org/2000/svg"><path d="M0 0h32v2H0zm0 8h32v2H0zm0 8h32v2H0z"/></symbol><symbol viewBox="0 0 21 30" id="pause" xmlns="http://www.w3.org/2000/svg"><path d="M8 29.047V.945C8 .422 7.55 0 6.983 0H1.017C.45 0 0 .422 0 .945v28.102C0 29.57.45 30 1.017 30h5.966C7.55 30 8 29.578 8 29.047zM19.983 0h-5.966C13.458 0 13 .422 13 .945v28.102c0 .523.45.953 1.017.953h5.966c.559 0 1.017-.422 1.017-.953V.945C21 .422 20.55 0 19.983 0z"/></symbol><symbol viewBox="0 0 13 15" id="person" xmlns="http://www.w3.org/2000/svg"><path d="M7.902 9.457c0-.026.016-.047.016-.072V7.71a1.06 1.06 0 00-.03-.138 4.336 4.336 0 001.563-1.538c.372-.63.565-1.338.56-2.057C10.011 1.781 8.44 0 6.5 0S2.988 1.78 2.988 3.977c.017.722.227 1.428.611 2.054.384.626.93 1.152 1.588 1.529a.945.945 0 00-.034.15v1.673a.38.38 0 00.01.04C2.193 9.766 0 11.275 0 12.767 0 14.464 2.909 15 6.5 15c3.59 0 6.5-.536 6.5-2.233-.001-1.454-2.205-2.92-5.098-3.31z"/></symbol><symbol viewBox="0 0 21 30" id="play" xmlns="http://www.w3.org/2000/svg"><path d="M21 15.005L0 0v30l21-14.995z"/></symbol><symbol viewBox="0 0 220 220" id="play-big" xmlns="http://www.w3.org/2000/svg"><g clip-path="url(#mclip0)"><path d="M110 8.892a101.126 101.126 0 0199.206 120.852 101.133 101.133 0 01-79.462 79.462A101.128 101.128 0 018.892 110 101.247 101.247 0 01110 8.892zM110 0a110 110 0 100 220 110 110 0 000-220z"/><path d="M167.954 110L76.528 49.912c.118 90.586 0 46.138 0 120.176L167.954 110z"/></g><defs><clipPath id="mclip0"><path d="M0 0h220v220H0z"/></clipPath></defs></symbol><symbol viewBox="0 0 17 17" id="select-arrow" xmlns="http://www.w3.org/2000/svg"><path d="M8.49 0a8.5 8.5 0 10.02 17 8.5 8.5 0 00-.02-17zm.317 11.717L4.118 6.784h9.378l-4.69 4.933z"/></symbol><symbol viewBox="0 0 10 12" id="slider-video-arrow" xmlns="http://www.w3.org/2000/svg"><path fill-rule="evenodd" clip-rule="evenodd" d="M.348.22a.883.883 0 011.304.155L5.826 6l-4.174 5.625a.883.883 0 01-1.304.156 1.054 1.054 0 01-.145-1.406L3.45 6 .203 1.625A1.054 1.054 0 01.348.219zm4.174 0a.883.883 0 011.304.155L10 6l-4.174 5.625a.883.883 0 01-1.304.156 1.054 1.054 0 01-.145-1.406L7.624 6 4.377 1.625A1.054 1.054 0 014.522.219z"/></symbol><symbol viewBox="0 0 30 8" id="slider-welcome-arrow" xmlns="http://www.w3.org/2000/svg"><path d="M24.277 0C26.099 1.687 28.006 2.917 30 3.692v.616c-1.994.797-3.902 2.028-5.723 3.692H22.76c.867-1.436 1.705-2.53 2.515-3.282H0V3.282h25.275C24.465 2.53 23.627 1.436 22.76 0h1.517z"/></symbol><symbol viewBox="0 0 24 24" id="social-fb" xmlns="http://www.w3.org/2000/svg"><path d="M9.78 22l-.03-8.75H6V9.5h3.75V7c0-3.37 2.09-5 5.1-5 1.44 0 2.68.1 3.04.15v3.53H15.8c-1.63 0-1.95.78-1.95 1.92v1.9h4.65l-1.25 3.75h-3.4V22H9.78z"/></symbol><symbol viewBox="0 0 24 24" id="social-insta" xmlns="http://www.w3.org/2000/svg"><path d="M13.02 2c1.8 0 2.18.02 3.1.06 1.06.05 1.79.22 2.42.47.66.25 1.22.6 1.77 1.15.56.55.9 1.11 1.16 1.77.25.63.41 1.36.46 2.43.05.95.06 1.32.06 3.32v1.6c0 2-.01 2.37-.06 3.32a7.333 7.333 0 01-.46 2.42c-.26.66-.6 1.22-1.15 1.77-.56.56-1.12.9-1.78 1.16-.63.25-1.36.41-2.42.46-.95.05-1.33.06-3.33.06H11.2c-2 0-2.37-.01-3.33-.06a7.339 7.339 0 01-2.42-.46 4.91 4.91 0 01-1.77-1.15 4.9 4.9 0 01-1.16-1.78 7.35 7.35 0 01-.46-2.42 55.204 55.204 0 01-.06-3.1v-2.05c0-1.8.02-2.18.06-3.1.05-1.06.22-1.79.46-2.42.26-.66.6-1.22 1.16-1.77a4.7 4.7 0 011.77-1.15 7.35 7.35 0 012.42-.47c.92-.04 1.3-.06 3.1-.06h2.05zm.02 1.8h-2.09c-1.73 0-2.1.02-3 .06-.97.04-1.5.2-1.85.34-.47.18-.8.4-1.15.75-.35.35-.57.68-.75 1.15-.13.35-.3.88-.34 1.86-.04.9-.06 1.26-.06 3v2.08c0 1.74.02 2.1.06 3 .04.97.2 1.5.34 1.85.18.47.4.8.75 1.15.35.35.68.57 1.15.75.35.14.88.3 1.86.34.97.05 1.32.06 3.48.06h1.11c2.17 0 2.51-.01 3.49-.06.97-.04 1.5-.2 1.85-.34.47-.18.8-.4 1.15-.75.35-.35.57-.68.75-1.15.14-.35.3-.88.34-1.85.05-.98.06-1.32.06-3.49v-1.1c0-2.17-.01-2.52-.06-3.5-.04-.97-.2-1.5-.34-1.85a3.101 3.101 0 00-.75-1.15 3.09 3.09 0 00-1.15-.75 5.6 5.6 0 00-1.85-.34c-1-.048-2-.068-3-.06zM12 6.86a5.135 5.135 0 110 10.27 5.135 5.135 0 010-10.27zm0 1.8a3.335 3.335 0 100 6.67 3.335 3.335 0 000-6.67zm5.33-3.2a1.2 1.2 0 110 2.4 1.2 1.2 0 010-2.4z"/></symbol><symbol viewBox="0 0 24 24" id="social-pint" xmlns="http://www.w3.org/2000/svg"><path d="M12 2a10 10 0 00-3.64 19.3c-.1-.79-.17-2 .03-2.87l1.17-4.97s-.3-.6-.3-1.48c0-1.39.81-2.42 1.82-2.42.85 0 1.27.64 1.27 1.4 0 .86-.55 2.14-.84 3.33-.24 1 .5 1.81 1.49 1.81 1.78 0 3.14-1.87 3.14-4.57 0-2.4-1.72-4.06-4.18-4.06a4.33 4.33 0 00-4.52 4.33c0 .86.33 1.78.74 2.28.08.1.09.19.06.29l-.28 1.13c-.04.18-.15.23-.33.14-1.26-.59-2.04-2.4-2.04-3.88 0-3.15 2.3-6.04 6.62-6.04 3.46 0 6.17 2.46 6.17 5.77 0 3.45-2.18 6.22-5.2 6.22-1 0-1.96-.53-2.28-1.15l-.63 2.37a10.998 10.998 0 01-1.24 2.63A9.999 9.999 0 0019.56 5.495 10 10 0 0012 2z"/></symbol><symbol viewBox="0 0 24 24" id="social-tw" xmlns="http://www.w3.org/2000/svg"><path d="M22 5.88c-.75.37-1.5.5-2.38.62.88-.5 1.5-1.25 1.75-2.25a8.2 8.2 0 01-2.62 1 4.36 4.36 0 00-3-1.25c-2.13 0-4 1.88-4 4.13 0 .37 0 .62.13.87a11.5 11.5 0 01-8.5-4.25 3.8 3.8 0 00-.5 2.13 4.1 4.1 0 001.87 3.37c-.63 0-1.25-.25-1.88-.5 0 2 1.38 3.63 3.25 4-.37.13-.75.13-1.12.13-.25 0-.5 0-.75-.13.5 1.63 2 2.88 3.88 2.88A7.95 7.95 0 013 18.38H2a12.2 12.2 0 006.25 1.87c7.5 0 11.63-6.25 11.63-11.63v-.5A7.27 7.27 0 0022 5.88z"/></symbol><symbol viewBox="0 0 24 24" id="social-youtube" xmlns="http://www.w3.org/2000/svg"><path d="M10.03 15.38V8.62L15.97 12l-5.94 3.38zm13.2-8.88a2.85 2.85 0 00-2-2.02C19.46 4 12.35 4 12.35 4s-7.1 0-8.87.48a2.85 2.85 0 00-2 2.02C1 8.28 1 12 1 12s0 3.72.47 5.5a2.85 2.85 0 002.01 2.02c1.77.48 8.88.48 8.88.48s7.1 0 8.87-.48a2.85 2.85 0 002-2.02c.48-1.78.48-5.5.48-5.5s0-3.72-.47-5.5h-.01z"/></symbol><symbol viewBox="0 0 14 23" id="tel" xmlns="http://www.w3.org/2000/svg"><path d="M12.374 0H1.628a1.66 1.66 0 00-1.15.463A1.556 1.556 0 000 1.577v19.846c.001.418.173.818.478 1.114a1.66 1.66 0 001.15.463h10.746a1.658 1.658 0 001.15-.463c.304-.296.476-.696.476-1.114V1.577c0-.418-.172-.818-.477-1.114A1.657 1.657 0 0012.373 0zM3.945 21.184H2.19a.595.595 0 01-.414-.166.558.558 0 010-.802.595.595 0 01.414-.166h1.755c.155 0 .304.06.414.166a.558.558 0 010 .802.595.595 0 01-.414.166zm0-2.161H2.19a.594.594 0 01-.413-.166.558.558 0 010-.8.594.594 0 01.413-.167h1.755c.155 0 .304.06.413.166a.558.558 0 010 .801.594.594 0 01-.413.166zm0-2.16H2.19a.596.596 0 01-.414-.166.558.558 0 010-.802.595.595 0 01.414-.166h1.755c.155 0 .304.06.414.166a.558.558 0 010 .802.596.596 0 01-.414.166zm0-2.161H2.19a.595.595 0 01-.414-.166.558.558 0 010-.802.595.595 0 01.414-.167h1.755c.155 0 .304.06.414.167a.558.558 0 010 .802.595.595 0 01-.414.166zm3.932 6.484H6.125a.595.595 0 01-.415-.167.558.558 0 010-.802.595.595 0 01.415-.166h1.752c.156 0 .305.06.415.166a.558.558 0 010 .802.595.595 0 01-.415.167zm0-2.162H6.125a.602.602 0 01-.414-.166.564.564 0 01-.171-.4.551.551 0 01.171-.4.585.585 0 01.414-.166h1.752a.6.6 0 01.414.165.566.566 0 01.171.4.55.55 0 01-.171.401.587.587 0 01-.414.166zm0-2.16H6.125a.595.595 0 01-.415-.166.559.559 0 010-.802.595.595 0 01.415-.166h1.752c.156 0 .305.06.415.166a.558.558 0 010 .802.595.595 0 01-.415.166zm0-2.161H6.125a.6.6 0 01-.415-.166.566.566 0 01-.171-.401.551.551 0 01.171-.401.587.587 0 01.415-.166h1.752a.602.602 0 01.415.166.566.566 0 01.171.4.552.552 0 01-.171.402.588.588 0 01-.415.166zm3.933 6.483h-1.755a.596.596 0 01-.414-.166.558.558 0 010-.802.595.595 0 01.414-.166h1.755c.155 0 .304.06.414.166a.559.559 0 010 .802.596.596 0 01-.414.166zm0-2.161h-1.755a.594.594 0 01-.413-.166.557.557 0 010-.8.594.594 0 01.413-.167h1.755c.155 0 .304.06.413.166a.557.557 0 010 .801.595.595 0 01-.413.166zm0-2.16h-1.755a.6.6 0 01-.414-.166.566.566 0 01-.172-.4.551.551 0 01.172-.402.587.587 0 01.414-.166h1.755a.602.602 0 01.414.166.567.567 0 01.172.401.552.552 0 01-.172.401.586.586 0 01-.414.166zm0-2.161h-1.755a.596.596 0 01-.414-.166.558.558 0 010-.802.595.595 0 01.414-.167h1.755c.155 0 .304.06.414.167a.559.559 0 010 .802.596.596 0 01-.414.166zm.623-2.442H1.569V1.852h10.86l.004 10.41z"/></symbol><symbol viewBox="0 0 15 15" id="time" xmlns="http://www.w3.org/2000/svg"><path d="M7.491 0a7.5 7.5 0 10.018 15A7.5 7.5 0 007.49 0zm2.91 10.02a.474.474 0 01-.662.11L6.955 8.142V3.936a.474.474 0 11.944 0v3.721l2.387 1.704a.472.472 0 01.119.658H10.4z"/></symbol><symbol viewBox="0 0 36 30" id="volume-off" xmlns="http://www.w3.org/2000/svg"><path d="M32.205 15l3.465-3.465c.22-.22.33-.488.33-.801 0-.314-.11-.582-.33-.802L34.068 8.33c-.22-.22-.488-.33-.802-.33-.313 0-.581.11-.801.33L29 11.795 25.535 8.33c-.22-.22-.488-.33-.801-.33-.314 0-.582.11-.802.33L22.33 9.932c-.22.22-.33.488-.33.802 0 .313.11.581.33.801L25.795 15l-3.465 3.465c-.22.22-.33.488-.33.801 0 .314.11.582.33.802l1.602 1.602c.22.22.488.33.802.33.313 0 .581-.11.801-.33L29 18.205l3.465 3.465c.22.22.487.33.801.33.315 0 .582-.11.802-.33l1.602-1.602c.22-.22.33-.488.33-.802 0-.313-.11-.581-.33-.801L32.205 15zM18.333 0c-.451 0-.842.156-1.173.47L8.49 8.683H1.666c-.452 0-.842.157-1.172.47-.33.312-.495.683-.495 1.11v9.472c0 .427.165.798.495 1.11.33.313.721.47 1.172.47H8.49l8.671 8.215c.33.313.72.469 1.173.469.452 0 .842-.156 1.172-.47.33-.312.495-.681.495-1.11V1.58c0-.428-.165-.798-.494-1.11-.33-.314-.72-.47-1.172-.47h-.001z"/></symbol><symbol viewBox="0 0 38 31" id="volume-on" xmlns="http://www.w3.org/2000/svg"><path d="M19.351 0a1.76 1.76 0 00-1.237.485L8.96 8.974h-7.2c-.477 0-.889.161-1.237.485-.349.323-.523.706-.523 1.147v9.788c0 .442.174.824.523 1.148a1.76 1.76 0 001.237.484h7.2l9.154 8.49c.348.322.76.484 1.237.484.477 0 .889-.162 1.237-.485.349-.323.523-.705.523-1.147V1.632c0-.441-.174-.824-.521-1.147A1.755 1.755 0 0019.352 0zm10.247 19.132c.74-1.117 1.111-2.324 1.111-3.622 0-1.297-.37-2.509-1.111-3.635s-1.72-1.92-2.942-2.38a1.491 1.491 0 00-.653-.129c-.453 0-.846.158-1.177.473a1.547 1.547 0 00-.497 1.165c0 .359.104.661.314.908.21.247.461.461.758.64.296.179.592.375.889.589.296.214.549.515.758.908.209.393.313.88.313 1.46 0 .579-.104 1.066-.313 1.458-.21.393-.462.696-.758.909-.297.212-.593.41-.889.589a3.036 3.036 0 00-.758.64 1.36 1.36 0 00-.314.908c0 .46.166.848.497 1.164.331.314.723.474 1.177.474.26 0 .479-.042.653-.128 1.22-.478 2.2-1.276 2.942-2.394v.003z"/><path d="M35.756 22.858C37.252 20.611 38 18.158 38 15.5c0-2.657-.748-5.11-2.244-7.36-1.495-2.246-3.475-3.884-5.937-4.909a1.93 1.93 0 00-.686-.13c-.457 0-.853.165-1.188.495-.335.33-.5.72-.5 1.173 0 .677.342 1.189 1.029 1.537.984.504 1.653.885 2.005 1.146a9.869 9.869 0 013.047 3.529 9.723 9.723 0 011.096 4.52 9.733 9.733 0 01-1.096 4.52 9.868 9.868 0 01-3.048 3.529c-.351.26-1.02.643-2.005 1.146-.686.348-1.029.86-1.029 1.537 0 .451.168.843.501 1.173.334.33.738.495 1.213.495.211 0 .432-.044.66-.13 2.462-1.026 4.442-2.662 5.937-4.91l.001-.002z"/></symbol></svg>